<svg width="511" height="468" viewBox="0 0 511 468" fill="none" xmlns="http://www.w3.org/2000/svg">
<rect width="511" height="468" rx="50" fill="#570DF8"/>
<path d="M143.085 205V117.727H161.537V153.736H198.994V117.727H217.403V205H198.994V168.949H161.537V205H143.085ZM232.276 205V139.545H250.429V205H232.276ZM241.395 131.108C238.696 131.108 236.381 130.213 234.449 128.423C232.545 126.605 231.594 124.432 231.594 121.903C231.594 119.403 232.545 117.259 234.449 115.469C236.381 113.651 238.696 112.741 241.395 112.741C244.094 112.741 246.395 113.651 248.298 115.469C250.23 117.259 251.196 119.403 251.196 121.903C251.196 124.432 250.23 126.605 248.298 128.423C246.395 130.213 244.094 131.108 241.395 131.108ZM264.971 205V139.545H282.57V150.966H283.252C284.445 146.903 286.448 143.835 289.261 141.761C292.073 139.659 295.312 138.608 298.977 138.608C299.886 138.608 300.866 138.665 301.917 138.778C302.968 138.892 303.891 139.048 304.687 139.247V155.355C303.835 155.099 302.656 154.872 301.15 154.673C299.644 154.474 298.266 154.375 297.016 154.375C294.346 154.375 291.96 154.957 289.857 156.122C287.783 157.259 286.136 158.849 284.914 160.895C283.721 162.94 283.124 165.298 283.124 167.969V205H264.971ZM340.855 206.278C334.122 206.278 328.327 204.915 323.469 202.188C318.639 199.432 314.918 195.54 312.304 190.511C309.69 185.455 308.384 179.474 308.384 172.571C308.384 165.838 309.69 159.929 312.304 154.844C314.918 149.759 318.597 145.795 323.341 142.955C328.114 140.114 333.71 138.693 340.131 138.693C344.449 138.693 348.469 139.389 352.19 140.781C355.94 142.145 359.207 144.205 361.991 146.96C364.804 149.716 366.991 153.182 368.554 157.358C370.116 161.506 370.898 166.364 370.898 171.932V176.918H315.628V165.668H353.81C353.81 163.054 353.241 160.739 352.105 158.722C350.969 156.705 349.392 155.128 347.375 153.991C345.386 152.827 343.071 152.244 340.429 152.244C337.673 152.244 335.23 152.884 333.099 154.162C330.997 155.412 329.349 157.102 328.156 159.233C326.963 161.335 326.352 163.679 326.324 166.264V176.96C326.324 180.199 326.92 182.997 328.114 185.355C329.335 187.713 331.054 189.531 333.27 190.81C335.486 192.088 338.114 192.727 341.153 192.727C343.17 192.727 345.017 192.443 346.693 191.875C348.369 191.307 349.804 190.455 350.997 189.318C352.19 188.182 353.099 186.79 353.724 185.142L370.514 186.25C369.662 190.284 367.915 193.807 365.273 196.818C362.659 199.801 359.278 202.131 355.131 203.807C351.011 205.455 346.253 206.278 340.855 206.278ZM156.562 312.159V350H138.408V284.545H155.71V296.094H156.477C157.925 292.287 160.354 289.276 163.763 287.06C167.173 284.815 171.306 283.693 176.164 283.693C180.71 283.693 184.673 284.688 188.053 286.676C191.434 288.665 194.062 291.506 195.937 295.199C197.812 298.864 198.749 303.239 198.749 308.324V350H180.596V311.562C180.624 307.557 179.602 304.432 177.528 302.188C175.454 299.915 172.599 298.778 168.962 298.778C166.519 298.778 164.36 299.304 162.485 300.355C160.638 301.406 159.19 302.94 158.138 304.957C157.116 306.946 156.59 309.347 156.562 312.159ZM242.631 351.278C236.011 351.278 230.287 349.872 225.457 347.06C220.656 344.219 216.949 340.27 214.335 335.213C211.722 330.128 210.415 324.233 210.415 317.528C210.415 310.767 211.722 304.858 214.335 299.801C216.949 294.716 220.656 290.767 225.457 287.955C230.287 285.114 236.011 283.693 242.631 283.693C249.25 283.693 254.96 285.114 259.761 287.955C264.591 290.767 268.312 294.716 270.926 299.801C273.54 304.858 274.847 310.767 274.847 317.528C274.847 324.233 273.54 330.128 270.926 335.213C268.312 340.27 264.591 344.219 259.761 347.06C254.96 349.872 249.25 351.278 242.631 351.278ZM242.716 337.216C245.727 337.216 248.241 336.364 250.259 334.659C252.276 332.926 253.795 330.568 254.818 327.585C255.869 324.602 256.395 321.207 256.395 317.401C256.395 313.594 255.869 310.199 254.818 307.216C253.795 304.233 252.276 301.875 250.259 300.142C248.241 298.409 245.727 297.543 242.716 297.543C239.676 297.543 237.119 298.409 235.045 300.142C233 301.875 231.452 304.233 230.401 307.216C229.378 310.199 228.866 313.594 228.866 317.401C228.866 321.207 229.378 324.602 230.401 327.585C231.452 330.568 233 332.926 235.045 334.659C237.119 336.364 239.676 337.216 242.716 337.216ZM297.922 350L280.109 284.545H298.476L308.618 328.523H309.214L319.783 284.545H337.808L348.547 328.267H349.101L359.072 284.545H377.396L359.626 350H340.408L329.158 308.835H328.348L317.098 350H297.922Z" fill="white"/>
</svg>
